<svg width="24" height="24" viewBox="0 0 24 24" fill="none" xmlns="http://www.w3.org/2000/svg">
<path d="M20.2231 0C21.6294 0 22.7619 1.137 22.8286 2.4765V24L20.1526 21.7267L18.6841 20.391L17.0784 18.9923L17.7466 21.1957H3.71111C2.30861 21.1957 1.17236 20.133 1.17236 18.7192V2.481C1.17236 1.1415 2.30936 0.0045 3.71561 0.0045H20.2156L20.2231 0ZM14.1054 5.6835H14.0739L13.8706 5.883C15.9451 6.4845 16.9486 7.422 16.9486 7.422C15.6129 6.75375 14.4054 6.41775 13.2024 6.28125C12.3354 6.1485 11.4639 6.219 10.7296 6.28125H10.5264C10.0576 6.28125 9.05786 6.4845 7.71761 7.01925C7.25261 7.2225 6.98336 7.35525 6.98336 7.35525C6.98336 7.35525 7.98311 6.351 10.1941 5.81625L10.0576 5.6835C10.0576 5.6835 8.38586 5.61675 6.58136 6.95325C6.58136 6.95325 4.77686 10.098 4.77686 13.9725C4.77686 13.9725 5.77661 15.711 8.51936 15.777C8.51936 15.777 8.92136 15.246 9.32411 14.7772C7.78511 14.3085 7.18361 13.371 7.18361 13.371C7.18361 13.371 7.32011 13.4377 7.51961 13.5705H7.57811C7.60961 13.5705 7.62536 13.5862 7.64036 13.602V13.6095C7.65611 13.6252 7.67186 13.6365 7.69886 13.6365C8.03111 13.773 8.35886 13.9058 8.62886 14.0385C9.09761 14.238 9.69536 14.4405 10.4296 14.574C11.3596 14.7105 12.4254 14.7735 13.6404 14.574C14.2381 14.4375 14.8396 14.3085 15.4411 14.0385C15.8281 13.839 16.3081 13.6402 16.8354 13.3005C16.8354 13.3005 16.2376 14.238 14.6319 14.7067C14.9604 15.1717 15.4246 15.7065 15.4246 15.7065C18.1704 15.6442 19.2369 13.9057 19.2954 13.98C19.2954 10.1093 17.4789 6.96075 17.4789 6.96075C15.8461 5.74575 14.3146 5.69925 14.0454 5.69925L14.1001 5.67975L14.1054 5.6835ZM14.2734 10.098C14.9769 10.098 15.5431 10.6958 15.5431 11.43C15.5431 12.1725 14.9731 12.7695 14.2734 12.7695C13.5699 12.7695 13.0036 12.1718 13.0036 11.4375C13.0036 10.695 13.5736 10.098 14.2734 10.098ZM9.73061 10.098C10.4296 10.098 10.9966 10.6958 10.9966 11.43C10.9966 12.1725 10.4266 12.7695 9.72686 12.7695C9.02336 12.7695 8.45336 12.1718 8.45336 11.4375C8.45336 10.695 9.02336 10.098 9.72686 10.098H9.73061Z" fill="black"/>
</svg>
