<svg width="24" height="24" viewBox="0 0 24 24" fill="none" xmlns="http://www.w3.org/2000/svg">
<path d="M6.99051 21V8.85543H3.09737V21H6.99051ZM5.04445 7.1963C6.40205 7.1963 7.2471 6.26374 7.2471 5.09835C7.22181 3.90668 6.40211 3 5.07021 3C3.73852 3 2.86768 3.9067 2.86768 5.09835C2.86768 6.26379 3.71251 7.1963 5.01903 7.1963H5.04432H5.04445ZM9.14536 21H13.0385V14.2179C13.0385 13.8549 13.0638 13.4923 13.1666 13.2328C13.448 12.5076 14.0886 11.7565 15.1641 11.7565C16.5728 11.7565 17.1364 12.8702 17.1364 14.5028V20.9999H21.0293V14.0363C21.0293 10.306 19.1087 8.57031 16.5472 8.57031C14.447 8.57031 13.5249 9.78751 13.0126 10.6165H13.0386V8.85518H9.14544C9.19654 9.99476 9.14544 20.9997 9.14544 20.9997L9.14536 21Z" fill="black"/>
</svg>
