<svg width="24" height="24" viewBox="0 0 24 24" fill="none" xmlns="http://www.w3.org/2000/svg">
<path d="M21.244 5.11522L23 3.38003V3H16.9185L12.5844 14.1476L7.65443 3H1.27786V3.38003L3.32891 5.93126C3.52943 6.1198 3.63255 6.39673 3.60677 6.67365V16.6989C3.66979 17.0612 3.55807 17.4295 3.31172 17.6917L1 20.5876V20.9617H7.54844V20.5817L5.23958 17.6946C5.11588 17.5654 5.02282 17.4086 4.96767 17.2365C4.91252 17.0643 4.89676 16.8813 4.92161 16.7018V8.02881L10.6708 20.9676H11.3383L16.2826 8.02881V18.3368C16.2826 18.6079 16.2826 18.6638 16.1107 18.8435L14.3318 20.62V21H22.9599V20.62L21.244 18.8848C21.0951 18.7669 21.0177 18.5696 21.0492 18.3781V5.62193C21.0344 5.52726 21.0446 5.43023 21.0789 5.34106C21.1132 5.25188 21.1702 5.17386 21.244 5.11522Z" fill="black"/>
</svg>
